<?xml version="1.0" standalone="no"?>
<!DOCTYPE svg PUBLIC "-//W3C//DTD SVG 20010904//EN"
 "http://www.w3.org/TR/2001/REC-SVG-20010904/DTD/svg10.dtd">
<svg version="1.0" xmlns="http://www.w3.org/2000/svg"
 width="200.000000pt" height="200.000000pt" viewBox="0 0 200.000000 200.000000"
 preserveAspectRatio="xMidYMid meet">
<metadata>
Created by potrace 1.14, written by Peter Selinger 2001-2017
</metadata>
<g transform="translate(0.000000,200.000000) scale(0.100000,-0.100000)"
fill="#000000" stroke="none">
<path d="M0 1485 c0 -459 2 -514 15 -508 10 3 15 0 13 -8 -2 -10 10 -14 45
-15 26 0 50 -4 54 -7 3 -4 0 -7 -8 -7 -11 0 -11 -2 1 -10 22 -14 33 -12 26 5
-7 19 8 19 39 -1 18 -12 28 -13 44 -5 27 15 31 14 31 -6 1 -17 1 -17 14 0 18
23 29 22 21 -3 -7 -22 5 -26 23 -8 9 9 12 9 12 0 0 -7 16 -12 40 -12 22 0 40
5 40 10 0 6 6 10 14 10 9 0 12 -7 9 -20 -4 -14 0 -20 11 -20 10 0 14 5 11 10
-4 7 3 9 22 5 21 -5 24 -4 13 4 -13 9 -13 11 3 11 9 0 17 -5 17 -11 0 -5 5 -7
11 -3 6 3 14 2 18 -3 3 -6 21 -14 40 -18 21 -4 31 -4 27 3 -3 5 3 12 14 15 28
7 26 -17 -2 -31 l-23 -11 23 0 c12 -1 25 5 28 13 8 20 40 26 61 11 27 -20 12
-26 -75 -28 -44 -1 -78 -5 -75 -9 2 -5 -8 -8 -22 -8 -17 0 -24 4 -19 12 5 8 2
9 -10 5 -10 -4 -20 -7 -22 -7 -2 0 -4 -4 -4 -10 0 -5 8 -10 17 -10 9 0 13 -3
10 -6 -3 -4 -22 1 -41 10 -29 13 -53 15 -86 6 -3 -1 -45 -1 -95 0 -77 1 -92 4
-107 21 -14 16 -31 20 -97 23 -80 3 -81 2 -81 -22 0 -25 1 -25 66 -19 62 6 66
5 61 -13 -4 -17 -1 -19 19 -14 26 7 34 -13 9 -22 -8 -4 -15 -11 -15 -16 0 -6
7 -7 18 -2 24 10 108 14 91 3 -8 -4 -24 -6 -36 -2 -27 6 -30 -5 -5 -23 15 -12
14 -13 -10 -14 -16 0 -28 4 -28 8 0 9 -56 9 -66 0 -11 -12 105 -19 126 -8 11
6 38 9 58 7 l37 -4 -42 -1 c-44 -2 -52 -9 -32 -29 8 -8 8 -13 0 -17 -6 -4 -11
-1 -11 7 0 12 -13 14 -67 11 -105 -6 -111 -8 -127 -29 -18 -24 -20 -15 -4 20
6 14 17 25 25 25 7 0 13 5 13 11 0 6 -7 8 -16 5 -9 -3 -27 -6 -40 -6 -13 0
-24 -4 -24 -9 0 -5 10 -7 22 -4 23 4 23 4 3 -12 -18 -14 -20 -30 -23 -137 -3
-85 0 -128 9 -145 11 -20 11 -26 -1 -34 -11 -8 -8 -9 12 -5 14 3 33 9 42 12 9
3 16 2 16 -4 0 -6 -18 -13 -40 -17 l-40 -7 0 -184 0 -184 1000 1 1000 0 0 44
c0 25 -5 45 -12 48 -10 4 -10 6 0 6 9 1 12 54 12 230 l0 229 -22 -4 -23 -5 23
12 c26 14 28 26 5 32 -17 4 -17 5 0 6 9 0 17 6 17 12 0 6 -8 8 -19 4 -23 -7
-39 14 -20 26 8 4 16 4 20 -3 4 -5 9 -6 12 -2 3 5 5 263 6 573 1 477 -1 562
-13 552 -11 -9 -14 -6 -13 14 0 26 12 34 20 13 3 -7 6 9 6 35 1 35 -3 47 -11
45 -7 -3 -14 -14 -16 -26 -2 -12 -8 -22 -13 -22 -6 0 -8 10 -4 23 5 19 4 20
-5 5 -6 -10 -20 -18 -31 -18 -11 0 -17 5 -14 10 3 6 1 10 -4 10 -16 0 -13 -36
4 -50 8 -7 15 -16 15 -21 0 -5 -7 -9 -15 -9 -25 0 -20 -67 5 -75 22 -7 24 -13
11 -34 -7 -11 -10 -9 -16 8 -3 12 -11 19 -16 15 -6 -3 -8 -12 -5 -20 3 -8 1
-14 -4 -14 -6 0 -10 8 -10 18 0 13 -2 14 -9 3 -7 -10 -10 -10 -13 -1 -3 10 -9
10 -26 1 -25 -13 -29 -31 -7 -31 8 0 15 -7 15 -15 0 -8 -7 -15 -16 -15 -12 0
-14 -10 -12 -47 3 -40 6 -47 26 -48 15 -1 22 4 22 17 0 11 5 16 10 13 6 -3 10
-1 10 4 0 6 -3 11 -7 11 -5 0 -9 20 -11 44 -2 41 -1 44 18 39 18 -5 20 -12 18
-59 -2 -40 -7 -54 -18 -54 -13 0 -13 -2 -1 -9 17 -11 23 -39 10 -47 -5 -3 -9
4 -9 15 0 28 -18 27 -23 -1 -4 -23 -4 -23 -6 1 -1 17 -5 21 -17 17 -9 -3 -20
-6 -25 -6 -5 0 -14 -10 -19 -22 l-9 -23 0 23 c-1 13 -5 21 -10 18 -12 -8 -12
155 0 170 7 8 6 15 -2 20 -8 5 -9 3 -4 -6 6 -9 4 -11 -5 -5 -10 6 -10 11 4 20
9 7 14 19 12 26 -13 40 -15 80 -5 73 8 -5 9 -2 1 12 -6 11 -7 27 -1 41 5 14 4
25 -3 29 -7 4 -8 3 -4 -4 8 -14 -5 -15 -56 -3 -30 7 -38 6 -38 -5 0 -8 9 -14
20 -14 14 0 20 -7 20 -24 0 -24 -13 -28 -37 -13 -7 5 -9 1 -6 -12 3 -12 11
-17 22 -14 11 3 18 -1 18 -11 0 -9 -6 -15 -13 -14 -7 2 -13 0 -13 -4 -2 -23 0
-27 14 -22 15 6 20 -6 15 -36 -2 -12 2 -11 18 3 20 18 20 18 15 -2 -4 -15 -13
-21 -33 -21 -24 0 -28 -5 -31 -32 -7 -63 1 -98 22 -98 10 0 19 -7 19 -15 0 -7
8 -19 18 -24 13 -8 8 -10 -25 -11 -40 0 -43 -2 -44 -27 -2 -25 -2 -26 -6 -5
-3 16 -9 22 -20 18 -11 -4 -13 -2 -9 9 4 11 -2 15 -27 15 -27 0 -32 4 -32 25
0 27 10 33 18 13 4 -10 6 -10 6 0 1 6 8 12 17 12 13 0 15 7 11 30 -4 16 -3 32
2 34 5 3 6 18 3 32 -3 17 -1 25 6 21 5 -4 13 0 16 9 3 8 10 13 15 10 5 -3 14
1 20 8 10 12 7 14 -14 12 -14 -2 -28 1 -31 5 -3 5 0 9 5 9 6 0 11 7 11 15 0 9
-6 12 -16 8 -14 -5 -15 3 -12 66 2 44 0 71 -7 71 -5 1 -29 5 -52 9 -43 8 -63
-6 -23 -16 24 -6 28 -53 5 -53 -8 0 -12 -6 -9 -13 3 -8 -2 -19 -10 -26 -13
-11 -14 -7 -11 28 2 23 0 41 -5 41 -6 0 -10 5 -10 12 0 6 9 3 20 -7 11 -10 20
-13 20 -7 0 7 -9 17 -19 24 -15 9 -17 16 -10 30 7 13 6 18 -3 16 -9 -2 -13 9
-12 35 l0 38 -143 -2 c-123 -1 -142 -3 -132 -15 17 -21 5 -27 -36 -20 -20 4
-35 13 -35 21 0 12 -84 14 -575 15 l-575 0 0 -515z m1600 365 c0 -11 -4 -20
-10 -20 -5 0 -10 9 -10 20 0 11 5 20 10 20 6 0 10 -9 10 -20z m-1496 -25 c3
-9 0 -15 -9 -15 -9 0 -12 6 -9 15 4 8 7 15 9 15 2 0 5 -7 9 -15z m1636 -5 c0
-11 -6 -20 -14 -20 -9 0 -14 9 -13 20 1 11 7 20 14 20 7 0 13 -9 13 -20z
m-140 -31 c0 -11 -4 -17 -10 -14 -5 3 -10 15 -10 26 0 11 5 17 10 14 6 -3 10
-15 10 -26z m350 -4 c0 -8 -4 -15 -10 -15 -5 0 -10 7 -10 15 0 8 5 15 10 15 6
0 10 -7 10 -15z m-715 -65 c8 -13 -5 -13 -25 0 -13 8 -13 10 2 10 9 0 20 -4
23 -10z m-885 -10 c0 -5 -4 -10 -10 -10 -5 0 -10 5 -10 10 0 6 5 10 10 10 6 0
10 -4 10 -10z m-77 -17 c-7 -2 -21 -2 -30 0 -10 3 -4 5 12 5 17 0 24 -2 18 -5z
m1681 -8 c3 -8 1 -15 -4 -15 -6 0 -10 7 -10 15 0 8 2 15 4 15 2 0 6 -7 10 -15z
m-416 -38 c3 -12 -35 -46 -39 -35 0 2 -3 15 -5 30 -4 24 -2 28 18 25 13 -2 24
-11 26 -20z m419 7 c-3 -3 -12 -4 -19 -1 -8 3 -5 6 6 6 11 1 17 -2 13 -5z
m-833 -39 c11 -8 34 -15 50 -16 27 0 28 -2 11 -9 -11 -5 -37 -9 -58 -9 -46 -1
-42 -16 5 -19 18 -2 37 -7 42 -12 10 -10 -13 -13 -103 -14 -69 -2 -60 -68 11
-78 23 -4 32 0 38 16 7 18 9 19 15 4 11 -28 1 -63 -19 -66 -14 -3 -17 0 -13
12 5 13 2 15 -16 11 -12 -3 -37 -7 -55 -9 l-33 -3 7 66 c9 89 18 109 56 126
41 18 39 18 62 0z m406 -25 c-8 -6 -10 -10 -4 -10 19 0 25 -40 6 -41 -15 -1
-15 -2 1 -6 24 -6 22 -23 -3 -18 -17 3 -19 1 -10 -15 6 -12 7 -21 1 -25 -9 -5
-19 30 -22 80 -2 36 1 43 19 47 23 6 30 -1 12 -12z m-1400 -31 c0 -11 -4 -17
-10 -14 -5 3 -10 13 -10 21 0 8 5 14 10 14 6 0 10 -9 10 -21z m1837 -11 c-3
-7 -5 -2 -5 12 0 14 2 19 5 13 2 -7 2 -19 0 -25z m-20 -60 c-3 -7 -5 -2 -5 12
0 14 2 19 5 13 2 -7 2 -19 0 -25z m-30 0 c-3 -8 -6 -5 -6 6 -1 11 2 17 5 13 3
-3 4 -12 1 -19z m-700 -61 c-5 -15 -39 -16 -44 -2 -2 6 8 12 23 13 17 1 24 -2
21 -11z m560 -79 c-3 -7 -5 -2 -5 12 0 14 2 19 5 13 2 -7 2 -19 0 -25z m70 10
c-3 -8 -6 -5 -6 6 -1 11 2 17 5 13 3 -3 4 -12 1 -19z m30 0 c-3 -8 -6 -5 -6 6
-1 11 2 17 5 13 3 -3 4 -12 1 -19z m-190 -10 c-3 -8 -6 -5 -6 6 -1 11 2 17 5
13 3 -3 4 -12 1 -19z m30 0 c-3 -8 -6 -5 -6 6 -1 11 2 17 5 13 3 -3 4 -12 1
-19z m163 -49 c0 -11 -4 -18 -10 -14 -5 3 -7 12 -3 20 7 21 13 19 13 -6z
m-103 -41 c-2 -13 -4 -5 -4 17 -1 22 1 32 4 23 2 -10 2 -28 0 -40z m-90 10
c-3 -7 -5 -2 -5 12 0 14 2 19 5 13 2 -7 2 -19 0 -25z m-682 -15 c-2 -16 5 -43
16 -61 10 -17 16 -38 13 -46 -3 -7 3 -16 12 -20 16 -6 16 -8 -2 -20 -18 -14
-18 -15 0 -35 12 -13 14 -21 7 -21 -16 0 7 -24 29 -32 9 -3 5 -7 -12 -10 -16
-3 -28 -1 -28 4 0 5 -5 6 -11 3 -6 -4 -8 -13 -5 -21 3 -9 -6 -15 -32 -20 -20
-3 -49 -14 -64 -25 -15 -10 -32 -19 -38 -19 -5 0 -10 -8 -10 -17 -1 -15 -2
-16 -9 -3 -12 21 -20 75 -22 143 -1 32 -6 60 -11 63 -4 3 -8 0 -8 -5 0 -6 -4
-11 -10 -11 -5 0 -10 7 -10 15 0 8 5 15 11 15 5 0 8 4 4 9 -13 22 20 60 74 85
31 15 67 33 81 40 14 8 26 15 27 15 1 1 0 -11 -2 -26z m472 -103 c8 -11 20
-26 28 -34 8 -8 15 -20 15 -27 0 -7 -11 1 -25 17 -14 16 -25 33 -25 38 0 4 -7
6 -14 3 -10 -4 -13 -1 -9 9 6 17 -8 18 -26 2 -10 -11 -16 -9 -30 9 -10 12 -21
19 -25 16 -5 -6 -10 12 -7 29 0 4 -7 4 -16 1 -10 -4 -14 -2 -10 4 4 6 0 13 -8
17 -8 3 -15 10 -15 16 0 13 151 -77 167 -100z m150 -112 c-2 -18 -4 -6 -4 27
0 33 2 48 4 33 2 -15 2 -42 0 -60z m30 -10 c-2 -18 -4 -4 -4 32 0 36 2 50 4
33 2 -18 2 -48 0 -65z m30 15 c-2 -16 -4 -3 -4 27 0 30 2 43 4 28 2 -16 2 -40
0 -55z m55 11 l-10 -49 -1 60 c-1 41 2 56 9 49 8 -8 8 -27 2 -60z m34 15 c-7
-69 -16 -75 -16 -12 0 44 5 63 17 63 3 0 2 -23 -1 -51z m61 -56 c-2 -21 -4 -4
-4 37 0 41 2 58 4 38 2 -21 2 -55 0 -75z m30 10 c-2 -21 -4 -6 -4 32 0 39 2
55 4 38 2 -18 2 -50 0 -70z m43 47 c0 -27 -4 -50 -10 -50 -5 0 -10 23 -10 50
0 28 5 50 10 50 6 0 10 -22 10 -50z m27 -27 c-2 -16 -4 -3 -4 27 0 30 2 43 4
28 2 -16 2 -40 0 -55z m30 -5 c-2 -18 -4 -6 -4 27 0 33 2 48 4 33 2 -15 2 -42
0 -60z m-418 25 c0 -32 -3 -42 -8 -29 -7 18 -3 76 5 76 2 0 4 -21 3 -47z m48
-20 c-2 -16 -4 -5 -4 22 0 28 2 40 4 28 2 -13 2 -35 0 -50z m122 30 c-1 -37
-1 -37 -8 -8 -7 28 -5 45 5 45 2 0 3 -17 3 -37z m78 -40 c-2 -16 -4 -3 -4 27
0 30 2 43 4 28 2 -16 2 -40 0 -55z m-220 35 c-3 -7 -5 -2 -5 12 0 14 2 19 5
13 2 -7 2 -19 0 -25z m-770 -10 c-3 -8 -6 -5 -6 6 -1 11 2 17 5 13 3 -3 4 -12
1 -19z m381 -50 c-35 -27 -52 -22 -25 6 6 8 20 14 30 13 15 -1 15 -4 -5 -19z
m378 -76 c-18 -16 -18 -16 -6 6 6 13 14 21 18 18 3 -4 -2 -14 -12 -24z m-829
12 c-3 -3 -12 -4 -19 -1 -8 3 -5 6 6 6 11 1 17 -2 13 -5z m883 -149 c0 -8 -10
-20 -22 -26 -22 -12 -22 -11 -5 8 9 11 14 23 10 26 -3 4 -1 7 5 7 7 0 12 -7
12 -15z m-920 -17 c0 -6 -7 -7 -16 -4 -9 3 -24 6 -35 6 -10 0 -19 4 -19 8 0 4
16 6 35 4 19 -2 35 -9 35 -14z m70 -28 c0 -20 -5 -30 -15 -30 -8 0 -15 5 -15
10 0 6 5 10 11 10 6 0 9 6 6 14 -5 12 0 26 10 26 2 0 3 -13 3 -30z m885 -1
c11 -17 -1 -21 -15 -4 -8 9 -8 15 -2 15 6 0 14 -5 17 -11z m65 1 c0 -5 -10
-10 -22 -10 -19 0 -20 2 -8 10 19 13 30 13 30 0z m-240 -70 c0 -10 6 -21 13
-23 7 -3 5 -6 -5 -6 -10 -1 -18 4 -18 9 0 6 -7 10 -16 10 -13 0 -14 -3 -5 -14
10 -12 8 -13 -8 -9 -24 6 -25 12 -7 36 8 10 12 28 9 40 -4 22 -4 22 16 -2 12
-13 21 -31 21 -41z m306 48 c4 -7 3 -8 -4 -4 -7 4 -12 2 -12 -3 0 -6 5 -11 12
-11 6 0 8 -3 5 -7 -4 -3 -16 3 -27 15 -21 22 -21 22 -1 22 11 0 23 -5 27 -12z
m-76 -18 c-9 -6 -10 -10 -3 -10 17 0 9 -35 -10 -38 -21 -4 -31 16 -17 33 7 8
9 15 4 16 -5 0 0 4 11 8 25 10 35 3 15 -9z m-1408 -2 c-9 -9 -15 -9 -24 0 -9
9 -7 12 12 12 19 0 21 -3 12 -12z m-218 -33 c3 -8 1 -15 -4 -15 -6 0 -10 7
-10 15 0 8 2 15 4 15 2 0 6 -7 10 -15z m1680 4 c4 6 13 11 19 11 13 -1 -22
-30 -35 -30 -4 0 -8 8 -8 18 0 13 2 14 9 3 6 -9 11 -10 15 -2z m71 -9 c3 -5 2
-10 -4 -10 -5 0 -13 5 -16 10 -3 6 -2 10 4 10 5 0 13 -4 16 -10z m125 0 c0 -5
-7 -10 -15 -10 -8 0 -15 5 -15 10 0 6 7 10 15 10 8 0 15 -4 15 -10z m-1680
-36 c14 -8 17 -13 7 -10 -10 3 -28 6 -38 6 -11 0 -17 5 -14 10 8 13 15 12 45
-6z m1525 6 c3 -5 -1 -10 -10 -10 -9 0 -13 5 -10 10 3 6 8 10 10 10 2 0 7 -4
10 -10z m102 -1 c-14 -8 -22 -8 -30 0 -8 8 -3 11 19 11 25 -1 27 -2 11 -11z
m-152 -9 c7 -12 -2 -12 -30 0 -19 8 -19 9 2 9 12 1 25 -3 28 -9z m-280 -10
c-28 -12 -37 -12 -30 0 3 6 16 10 28 9 21 0 21 -1 2 -9z m209 -2 c-3 -4 -9 -8
-15 -8 -5 0 -9 4 -9 8 0 5 7 9 15 9 8 0 12 -4 9 -9z m244 -13 c-1 -13 -4 -22
-7 -20 -2 3 -10 0 -18 -6 -10 -9 -13 -7 -13 10 0 11 -6 21 -12 22 -15 1 21 17
39 18 8 1 12 -9 11 -24z m-1580 -12 c-10 -2 -28 -2 -40 0 -13 2 -5 4 17 4 22
1 32 -1 23 -4z m1362 -15 c0 -5 -9 -4 -20 2 -11 6 -20 12 -20 14 0 2 9 2 20
-1 11 -3 20 -9 20 -15z m70 11 c-12 -8 -10 -9 10 -5 14 3 36 8 50 11 22 5 21
3 -5 -9 l-30 -15 30 -1 c17 0 37 -5 45 -11 11 -8 8 -9 -15 -5 -16 3 -54 9 -84
13 -48 5 -52 8 -36 20 11 7 26 13 34 13 14 0 14 -2 1 -11z m-992 -66 c-10 -2
-26 -2 -35 0 -10 3 -2 5 17 5 19 0 27 -2 18 -5z m-258 -23 c0 -5 -4 -10 -10
-10 -5 0 -10 5 -10 10 0 6 5 10 10 10 6 0 10 -4 10 -10z m253 -14 c3 -7 0 -19
-6 -26 -10 -10 -6 -11 16 -6 37 9 34 -2 -5 -19 -38 -15 -46 -8 -40 35 4 31 26
41 35 16z m-503 -16 c-8 -6 -26 -9 -40 -8 l-25 1 25 4 c14 3 29 9 34 14 5 5
12 6 15 3 3 -3 -1 -9 -9 -14z m1180 -104 c0 -8 8 -17 18 -19 10 -3 6 -5 -10
-6 -16 0 -28 3 -28 9 0 5 -8 6 -17 3 -16 -6 -16 -5 -4 10 16 21 41 22 41 3z
m-1333 -42 c-3 -3 -12 -4 -19 -1 -8 3 -5 6 6 6 11 1 17 -2 13 -5z m713 -8 c0
-8 -13 -16 -30 -18 -30 -5 -44 15 -17 25 24 10 47 7 47 -7z m586 2 c4 -6 3 -8
-4 -4 -5 3 -12 1 -14 -6 -3 -8 -7 -6 -11 5 -7 20 17 24 29 5z m-1193 -5 c-7
-2 -21 -2 -30 0 -10 3 -4 5 12 5 17 0 24 -2 18 -5z m637 -39 c11 -27 3 -55
-10 -35 -5 8 -14 9 -33 2 -15 -6 -27 -9 -27 -7 0 3 -3 11 -6 20 -4 11 4 20 27
31 19 8 35 14 37 15 1 0 7 -12 12 -26z m-605 6 c4 -6 -6 -10 -22 -9 -25 0 -26
1 -8 9 11 5 21 9 22 9 1 1 5 -3 8 -9z m372 -46 c-3 -3 -12 -4 -19 -1 -8 3 -5
6 6 6 11 1 17 -2 13 -5z m178 -24 c-3 -5 -11 -10 -16 -10 -6 0 -7 5 -4 10 3 6
11 10 16 10 6 0 7 -4 4 -10z m878 -37 c-7 -17 -20 -17 -26 1 -4 10 0 14 12 13
11 -1 17 -7 14 -14z m-923 -33 c0 -5 -2 -10 -4 -10 -3 0 -8 5 -11 10 -3 6 -1
10 4 10 6 0 11 -4 11 -10z m20 -54 c0 -21 -20 -30 -33 -16 -9 9 -8 11 3 8 8
-2 14 3 13 10 -2 6 2 12 7 12 6 0 10 -6 10 -14z m817 8 c-3 -3 -12 -4 -19 -1
-8 3 -5 6 6 6 11 1 17 -2 13 -5z m-47 -15 c0 -4 9 -11 20 -14 11 -3 20 -11 20
-17 0 -6 -6 -5 -15 2 -9 7 -38 13 -66 14 -27 0 -45 2 -39 4 6 2 8 7 6 11 -3 4
13 7 35 7 21 0 39 -3 39 -7z m-716 -37 c3 -5 -1 -9 -9 -9 -8 0 -15 4 -15 9 0
4 4 8 9 8 6 0 12 -4 15 -8z m713 2 c-3 -3 -12 -4 -19 -1 -8 3 -5 6 6 6 11 1
17 -2 13 -5z"/>
<path d="M1455 690 c-3 -5 -1 -10 4 -10 6 0 11 5 11 10 0 6 -2 10 -4 10 -3 0
-8 -4 -11 -10z"/>
<path d="M1546 1979 c-17 -17 -18 -19 -3 -19 9 0 17 -7 17 -16 0 -9 5 -13 13
-10 6 3 20 9 30 12 18 7 25 54 7 54 -5 0 -10 -7 -10 -15 0 -8 -4 -15 -10 -15
-5 0 -10 7 -10 15 0 20 -11 18 -34 -6z"/>
<path d="M1684 1985 c19 -14 19 -15 1 -35 -10 -11 -13 -20 -8 -20 17 0 25 -33
11 -42 -9 -5 -5 -8 11 -8 16 0 21 4 18 15 -7 17 9 30 18 15 12 -20 25 2 25 43
l0 43 -47 1 c-44 2 -46 1 -29 -12z m56 -26 c0 -6 -4 -7 -10 -4 -5 3 -10 11
-10 16 0 6 5 7 10 4 6 -3 10 -11 10 -16z"/>
<path d="M1840 1985 c0 -8 -7 -15 -15 -15 -10 0 -15 -10 -15 -34 0 -38 20 -52
51 -36 23 13 25 22 3 13 -13 -5 -15 1 -9 41 5 31 4 46 -4 46 -6 0 -11 -7 -11
-15z"/>
<path d="M1903 1993 c9 -2 17 -13 17 -24 0 -11 -4 -17 -10 -14 -5 3 -10 0 -11
-7 0 -7 -2 -22 -4 -32 -2 -11 3 -29 11 -40 8 -12 14 -15 14 -7 0 9 8 11 24 7
33 -8 56 2 56 26 0 10 -5 16 -10 13 -6 -4 -8 -10 -5 -15 3 -5 0 -12 -6 -16 -8
-4 -10 6 -6 37 3 24 6 48 6 52 1 5 6 5 11 2 6 -3 10 1 10 9 0 13 -12 16 -57
15 -32 -1 -50 -3 -40 -6z"/>
<path d="M1548 1913 c7 -3 16 -2 19 1 4 3 -2 6 -13 5 -11 0 -14 -3 -6 -6z"/>
<path d="M1613 1907 c-3 -6 -1 -7 6 -3 6 4 18 3 25 -3 10 -9 15 -8 19 1 6 16
-40 21 -50 5z"/>
<path d="M1850 1852 c0 -6 -9 -8 -20 -5 -23 6 -27 -12 -5 -21 8 -3 15 -12 15
-21 0 -8 -7 -15 -15 -15 -11 0 -15 -11 -15 -40 0 -30 4 -40 16 -40 8 0 12 -4
9 -10 -3 -5 0 -10 8 -10 10 0 13 13 10 53 -3 36 -1 48 6 37 5 -8 7 -19 5 -25
-3 -5 2 -1 10 10 19 23 15 41 -8 37 -19 -3 -20 2 -6 28 7 13 7 21 0 25 -5 3
-10 2 -10 -3z"/>
<path d="M1763 1610 c1 -20 12 -26 20 -12 3 4 -1 13 -8 19 -11 10 -13 9 -12
-7z"/>
<path d="M1865 1620 c-3 -5 -1 -10 4 -10 6 0 11 5 11 10 0 6 -2 10 -4 10 -3 0
-8 -4 -11 -10z"/>
<path d="M1645 1550 c9 -30 21 -45 28 -33 3 5 -3 20 -14 33 l-20 25 6 -25z"/>
<path d="M1770 1543 c0 -5 5 -15 10 -23 8 -12 10 -11 10 8 0 12 -4 22 -10 22
-5 0 -10 -3 -10 -7z"/>
<path d="M87 898 c-7 -4 7 -8 31 -8 23 0 42 4 42 9 0 10 -57 9 -73 -1z"/>
<path d="M40 890 c0 -5 4 -10 9 -10 6 0 13 5 16 10 3 6 -1 10 -9 10 -9 0 -16
-4 -16 -10z"/>
<path d="M315 890 c-3 -5 1 -10 10 -10 9 0 13 5 10 10 -3 6 -8 10 -10 10 -2 0
-7 -4 -10 -10z"/>
<path d="M378 883 c7 -3 16 -2 19 1 4 3 -2 6 -13 5 -11 0 -14 -3 -6 -6z"/>
<path d="M470 869 c0 -5 5 -7 10 -4 6 3 10 8 10 11 0 2 -4 4 -10 4 -5 0 -10
-5 -10 -11z"/>
<path d="M70 770 c-8 -5 -10 -10 -5 -10 6 0 17 5 25 10 8 5 11 10 5 10 -5 0
-17 -5 -25 -10z"/>
</g>
</svg>
